<?xml version="1.0" encoding="UTF-8" standalone="no"?>
<!DOCTYPE svg PUBLIC "-//W3C//DTD SVG 20010904//EN"
              "http://www.w3.org/TR/2001/REC-SVG-20010904/DTD/svg10.dtd">

<svg xmlns="http://www.w3.org/2000/svg"
     width="141.824mm" height="137.238mm"
     viewBox="0 0 804 778">
  <path id="Selection"
        fill="none" stroke="black" stroke-width="1"
        d="M 109.00,90.00
           C 109.00,90.00 118.19,113.00 118.19,113.00
             118.19,113.00 125.98,136.00 125.98,136.00
             135.03,165.13 139.97,195.64 142.09,226.00
             142.09,226.00 143.00,236.00 143.00,236.00
             143.00,236.00 144.00,258.00 144.00,258.00
             144.00,258.00 144.00,325.00 144.00,325.00
             144.00,384.07 143.00,436.12 180.47,486.00
             205.18,518.90 246.38,543.79 284.00,559.58
             284.00,559.58 323.00,574.58 323.00,574.58
             327.18,576.14 337.79,578.98 340.62,581.51
             340.62,581.51 356.20,607.00 356.20,607.00
             356.20,607.00 388.66,657.00 388.66,657.00
             392.92,663.26 401.78,677.79 408.00,681.00
             415.08,671.11 439.97,648.98 450.00,639.00
             454.16,634.86 469.48,620.30 474.00,618.55
             474.00,618.55 508.00,612.35 508.00,612.35
             537.39,605.61 567.26,594.73 589.00,573.00
             609.90,552.09 618.88,525.97 625.87,498.00
             625.87,498.00 647.72,406.00 647.72,406.00
             653.37,387.25 662.60,366.00 672.28,349.00
             672.28,349.00 690.00,320.00 690.00,320.00
             684.10,321.44 678.04,320.99 672.00,321.00
             672.00,321.00 660.00,321.91 660.00,321.91
             660.00,321.91 634.00,324.16 634.00,324.16
             601.18,327.68 566.15,336.44 536.00,349.86
             512.94,360.13 491.34,374.47 474.09,393.00
             441.62,427.86 429.10,470.56 425.91,517.00
             425.91,517.00 425.00,528.00 425.00,528.00
             424.91,548.12 426.12,568.05 428.72,588.00
             429.61,594.84 430.96,606.81 433.00,613.00
             442.95,605.88 464.48,581.30 473.08,571.00
             499.73,539.11 523.53,505.14 545.68,470.00
             545.68,470.00 569.40,431.00 569.40,431.00
             572.89,425.10 580.23,413.08 582.00,407.00
             581.99,412.19 577.62,420.16 575.24,425.00
             575.24,425.00 558.25,459.00 558.25,459.00
             533.11,509.27 503.15,557.22 466.57,600.00
             455.19,613.31 442.78,625.11 430.00,637.02
             427.67,639.20 418.79,648.43 415.74,647.00
             414.50,646.41 410.50,641.32 409.42,640.00
             409.42,640.00 396.13,623.00 396.13,623.00
             380.24,601.81 365.28,580.02 352.15,557.00
             311.19,485.21 286.59,416.20 264.58,337.00
             264.58,337.00 248.58,272.00 248.58,272.00
             248.58,272.00 242.00,239.00 242.00,239.00
             242.00,239.00 257.67,289.00 257.67,289.00
             270.25,326.74 283.32,364.09 298.20,401.00
             312.69,436.95 328.86,472.89 347.31,507.00
             347.31,507.00 370.00,547.00 370.00,547.00
             370.00,547.00 384.00,570.00 384.00,570.00
             388.05,564.41 393.90,546.31 396.33,539.00
             403.62,517.13 409.55,497.53 414.65,475.00
             426.94,420.69 429.17,356.20 410.92,303.00
             376.13,201.55 282.03,143.68 185.00,111.33
             168.08,105.69 125.18,92.28 109.00,90.00 Z
           M 584.00,406.00
           C 584.00,406.00 584.00,407.00 584.00,407.00
             584.00,407.00 583.00,406.00 583.00,406.00
             583.00,406.00 584.00,406.00 584.00,406.00 Z" />
</svg>
